<?xml version="1.0" standalone="no"?><!DOCTYPE svg PUBLIC "-//W3C//DTD SVG 1.1//EN" "http://www.w3.org/Graphics/SVG/1.1/DTD/svg11.dtd"><svg class="icon" width="81px" height="81.00px" viewBox="0 0 1024 1024" version="1.1" xmlns="http://www.w3.org/2000/svg"><path fill="#353535" d="M819.2 910.222222 204.8 910.222222c-50.267022 0-91.022222-40.709689-91.022222-91.022222L113.777778 250.356622C113.777778 200.044089 154.532978 159.288889 204.8 159.288889l113.777778 0L318.577778 147.911111C318.577778 129.069511 311.113956 113.777778 329.955556 113.777778 348.819911 113.777778 364.088889 129.069511 364.088889 147.911111L364.088889 159.288889l295.822222 0L659.911111 147.911111C659.911111 129.069511 675.202844 113.777778 694.044444 113.777778S705.422222 129.069511 705.422222 147.911111L705.422222 159.288889l113.777778 0c50.267022 0 91.022222 40.7552 91.022222 91.067733L910.222222 819.2C910.222222 869.512533 869.467022 910.222222 819.2 910.222222zM864.711111 250.311111c0-25.122133-20.366222-45.511111-45.511111-45.511111l-113.777778 0 0 34.133333c0 18.8416-15.291733 34.133333-34.133333 34.133333S659.911111 257.774933 659.911111 238.933333L659.911111 204.8 364.088889 204.8l0 34.133333c0 18.8416-15.268978 34.133333-34.133333 34.133333-18.864356 0-11.377778-15.291733-11.377778-34.133333L318.577778 204.8 204.8 204.8c-25.144889 0-45.511111 20.388978-45.511111 45.511111l0 568.888889c0 25.144889 20.366222 45.511111 45.511111 45.511111l614.4 0c25.144889 0 45.511111-20.366222 45.511111-45.511111L864.711111 250.311111zM724.855467 579.606756c-1.024 3.640889-2.594133 7.145244-5.484089 10.0352l-108.726044 108.452978c-8.897422 8.851911-23.278933 8.851911-32.176356 0-8.897422-8.897422-8.897422-23.233422 0-32.130844l74.9568-74.752L318.577778 591.212089c-12.561067 0-22.755556-10.126222-22.755556-22.664533s10.194489-22.710044 22.755556-22.710044l331.639467 0-74.410667-74.183111c-9.147733-9.147733-9.147733-24.007111 0-33.154844 9.193244-9.147733 24.075378-9.147733 33.245867 0l112.2304 111.957333c4.801422 4.755911 6.940444 11.0592 6.735644 17.339733C728.041244 568.046933 728.177778 568.274489 728.177778 568.5248 728.177778 572.6208 726.766933 576.261689 724.855467 579.606756z" /></svg>