<?xml version="1.0" standalone="no"?><!DOCTYPE svg PUBLIC "-//W3C//DTD SVG 1.1//EN" "http://www.w3.org/Graphics/SVG/1.1/DTD/svg11.dtd"><svg class="icon" width="81px" height="81.00px" viewBox="0 0 1024 1024" version="1.1" xmlns="http://www.w3.org/2000/svg"><path fill="#353535" d="M194.075649 133.706211c-19.006889 0-34.329876-15.093766-34.329876-34.06791 0-18.957771 15.322987-34.051537 34.329876-34.051537l629.885897 0c19.235087 0 34.362622 15.093766 34.362622 34.051537 0 18.974144-15.127536 34.06791-34.362622 34.06791l-28.166503 0c-3.684926 111.381763-28.037567 194.546881-63.507406 256.097726l-0.457418 1.239224c-36.023448 61.746296-83.653235 101.649098-133.794216 126.687354 50.14098 24.580838 97.770767 64.940035 133.794216 126.753869l0.457418 1.172709c34.295084 59.107189 57.898665 137.903813 62.952774 242.48673l28.721135 0c19.235087 0 34.362622 15.095813 34.362622 33.57877 0 19.431561-15.127536 34.558074-34.362622 34.558074l-629.885897 0c-19.006889 0-34.329876-15.125489-34.329876-34.558074 0-18.48398 15.322987-33.57877 34.329876-33.57877l28.949332 0c5.053086-104.582917 28.722158-183.379541 62.724577-242.48673l0.716314-1.172709c35.991726-61.812811 83.394339-102.173031 133.729747-126.753869-50.334385-25.038256-97.736998-64.941058-133.729747-126.687354l-0.716314-1.239224c-35.502585-61.550845-59.367109-144.715963-63.47466-256.097726L194.075649 133.706211 194.075649 133.706211zM749.793336 888.142799 749.793336 888.142799c-20.212344-72.469522-63.213717-123.55706-115.276467-153.681148-38.371936-22.428825-81.763189-33.57877-125.742842-33.57877-43.523259 0-87.109963 11.149944-125.286448 33.57877-52.031027 30.124088-94.804203 81.210603-115.210975 153.681148L749.793336 888.142799 749.793336 888.142799zM279.88192 772.376169 279.88192 772.376169c23.667026-30.642904 52.063773-55.452963 83.001389-73.448826 44.956911-25.75457 95.553263-38.893822 145.889695-38.893822 50.857295 0 101.419877 13.139252 146.149615 38.632879 31.655977 18.256806 59.856249 43.066865 83.23061 73.709769-10.269901-41.336454-24.091698-76.839039-41.3385-106.050338l-0.488117-1.468444c-41.143049-71.004147-100.1827-108.918665-159.548786-127.436414l-2.934842-1.434675-0.490164 0c-1.206478-0.488117-2.444679-0.977257-3.455705-1.956561l-0.456395-0.455371-1.466398-1.011027 0-0.488117-1.662873-1.435699-0.228197-0.48914c-0.782829-1.010003-1.467421-2.184759-1.988284-3.422959l-0.48914-0.454348c-0.457418-1.500167-0.978281-3.195785-1.468444-4.891404l0-0.456395 0-1.499144 0-1.207501 0-0.945535 0-1.237177 0-0.979304 0-0.977257c0.490164-1.695618 1.010003-3.390213 1.468444-4.858658l0.48914-0.488117c0.521886-1.434675 1.206478-2.444679 1.988284-3.390213l0.228197-0.750083 1.662873-1.205455 0 0 1.466398-1.434675 0.456395-0.48914c1.239224-0.750083 2.249227-1.466398 3.455705-2.216481l0.490164-0.260943 2.934842-0.945535c59.366086-17.996886 118.405737-56.432267 159.548786-127.927601l0.488117-0.48914c32.536021-56.20407 54.445006-132.784212 57.900711-235.917104l-491.330238 0c3.879354 103.132892 25.722848 179.714058 57.865919 235.917104l0.521886 0.48914c41.3385 71.495334 100.183723 109.930715 160.071695 127.927601l2.346441 0.945535 0.48914 0.260943c1.239224 0.750083 2.411933 1.466398 3.454682 2.216481l0.424672 0.48914 1.467421 1.434675 0.227174 0 1.468444 1.205455 0.260943 0.750083c0.977257 0.945535 1.433652 1.956561 2.444679 3.390213l0 0.488117c1.010003 1.468444 1.467421 3.163039 1.467421 4.858658l0.229221 0.977257 0 0.979304 0.227174 1.237177 0 0.945535-0.227174 1.207501 0 1.499144-0.229221 0.456395c0 1.695618-0.456395 3.390213-1.467421 4.891404l0 0.454348c-1.011027 1.238201-1.468444 2.412956-2.444679 3.422959l-0.260943 0.48914-1.468444 1.435699-0.227174 0.488117-1.467421 1.011027-0.424672 0.455371c-1.042749 0.979304-2.216481 1.469468-3.454682 1.956561l-0.48914 0-2.346441 1.434675c-59.887972 18.517749-118.733195 56.432267-160.071695 127.436414l-0.521886 1.468444C304.200792 695.538153 290.117029 730.549551 279.88192 772.376169L279.88192 772.376169zM329.989131 307.323411 329.989131 307.323411c14.637372 37.98001 35.567054 72.505337 64.22372 100.215446 25.787316 25.821085 58.388828 45.511543 97.770767 57.899688l0.228197 0 0.74906 0.260943 5.346775 2.184759 1.468444 0.48914c0.944512 0.456395 1.955538 0.945535 3.162016 1.433652l0.945535 0.260943c5.412266 1.206478 10.498098 0.488117 15.322987-1.694595l0.260943-0.48914 5.835915-2.184759 0.521886-0.260943 0.48914 0c39.642882-12.388145 71.722508-32.078603 97.965196-57.899688l0 0c28.29851-27.710109 49.65184-62.235436 64.190975-100.215446 3.944845-10.69355-0.877997-22.364357-11.605316-26.243711-10.692526-4.368494-22.624277 0.978281-26.798343 11.703553-12.812817 32.340569-30.613228 62.007239-54.737672 85.61082-21.419845 20.928658-47.857984 37.425378-80.947614 47.663556l-0.979304 0.455371-2.409886 0.48914-1.990331 0.977257-1.955538-0.977257-1.466398-0.48914-1.924839-0.455371c-32.534997-10.238179-59.561537-26.733874-80.752162-47.663556-24.320918-23.603581-42.055838-53.271274-54.933123-85.61082-3.880377-10.725272-16.072047-16.072047-26.243711-11.703553C330.999135 284.959054 326.109778 296.629861 329.989131 307.323411L329.989131 307.323411zM512.913301 426.513 512.913301 426.513l0.488117 0L512.913301 426.513 512.913301 426.513z" /></svg>