<?xml version="1.0" standalone="no"?><!DOCTYPE svg PUBLIC "-//W3C//DTD SVG 1.1//EN" "http://www.w3.org/Graphics/SVG/1.1/DTD/svg11.dtd"><svg class="icon" width="81px" height="81.00px" viewBox="0 0 1024 1024" version="1.1" xmlns="http://www.w3.org/2000/svg"><path fill="#353535" d="M303.300282 650.483005c23.51353 15.628956 39.141462 35.135218 50.764174 54.641481l132.930545-27.38572c0-35.140335 11.621688-74.28282 31.262004-109.418039 23.378453-39.009456 54.641481-70.336952 93.783966-85.968977l-58.648748-168.066787c-15.627932 0-35.135218-3.939729-50.768267-15.628956-46.891983-27.387767-62.521962-89.910753-31.258934-136.803759 27.251667-50.833759 89.777723-66.465784 136.669706-35.202757 27.386744 15.628956 43.019793 39.074947 46.891983 70.337975l128.919185 7.814989c4.01136-11.689227 11.755742-23.445992 23.51353-31.259958 35.135218-27.321252 85.904509-19.506263 109.418039 15.631002 27.251667 35.202757 19.505239 86.033445-15.628956 109.482507-35.269271 27.321252-86.038562 19.504216-109.418039-15.631002-11.755742-11.756765-15.627932-27.387767-15.627932-39.078017l-121.174803-7.881504c-3.872191 7.881504-7.749498 19.570731-11.621688 27.38572-11.755742 19.572778-23.51353 31.263028-39.147602 39.076994l54.776557 164.191526c54.640458-11.756765 113.290229-3.940752 164.058496 23.444968 105.406678 62.527079 136.669706 199.329814 74.143651 304.869522-62.520939 105.540731-199.189621 140.676973-304.735469 74.277704-50.765197-31.257911-85.899392-78.155011-97.523127-132.925429l-125.045971 23.51353c3.872191 31.257911-4.01136 58.648748-19.506263 82.027202-39.141462 66.399269-125.046994 89.911776-191.579293 50.764174-66.264193-42.8796-85.899392-128.919185-46.75793-195.317431C151.001621 634.721019 237.03609 611.341542 303.300282 650.483005L303.300282 650.483005z" /></svg>