<?xml version="1.0" standalone="no"?><!DOCTYPE svg PUBLIC "-//W3C//DTD SVG 1.1//EN" "http://www.w3.org/Graphics/SVG/1.1/DTD/svg11.dtd"><svg class="icon" width="81px" height="81.00px" viewBox="0 0 1024 1024" version="1.1" xmlns="http://www.w3.org/2000/svg"><path fill="#353535" d="M326.352813 682.283268c-36.157501 0-71.207785-8.374738-104.179734-24.891923-31.622208-15.84078-59.971883-38.45994-84.262102-67.228147-49.482995-58.606793-76.735685-136.358621-76.735685-218.931245 0-82.573647 27.251667-160.325475 76.735685-218.933291 24.289196-28.768207 52.638871-51.387367 84.262102-67.229171 32.970926-16.517185 68.022233-24.891923 104.179734-24.891923s71.207785 8.374738 104.178711 24.891923c31.622208 15.84078 59.971883 38.45994 84.261079 67.229171 49.484018 58.607816 76.735685 136.359644 76.735685 218.933291 0 82.572624-27.251667 160.324452-76.735685 218.931245-24.289196 28.768207-52.638871 51.387367-84.261079 67.228147C397.560598 673.909553 362.510314 682.283268 326.352813 682.283268zM326.352813 92.923366c-128.162962 0-232.4307 124.848473-232.4307 278.308587 0 153.458067 104.268762 278.30654 232.4307 278.30654s232.4307-124.847449 232.4307-278.30654C558.783513 217.771839 454.515774 92.923366 326.352813 92.923366zM736.601384 688.849824c-46.924729 0-91.444689-15.620769-128.860856-45.233204-37.033451-29.312606-65.181535-70.792323-81.400938-119.955022-2.833535-8.587586 1.831718-17.845437 10.419304-20.677948 8.588609-2.834558 17.844413 1.831718 20.677948 10.419304 28.647457 86.835717 98.889241 142.700049 179.210591 142.701073 0.478907 0 0.955768-0.002047 1.433652-0.00614 106.820887-0.88516 192.873776-105.421005 191.82898-233.026264-0.074701-9.041934 7.194866-16.432251 16.237823-16.505929 0.045025 0 0.092098 0 0.137123 0 8.979512 0 16.296151 7.241938 16.368806 16.238846 0.575098 70.060659-22.11774 136.239917-63.896262 186.345082-42.430368 50.886971-99.396801 79.189573-160.40427 79.694063C737.77 688.846754 737.183645 688.849824 736.601384 688.849824zM946.278871 439.310468c-8.979512 0-16.296151-7.241938-16.368806-16.238846-0.51063-62.314231-21.463848-120.609938-58.998719-164.149571-36.871769-42.769083-85.446068-66.099441-136.616494-65.664535-61.790298 0.511653-123.756605 36.467563-154.197918 89.471754-4.502547 7.841595-14.509459 10.54824-22.353101 6.043646-7.840572-4.503571-10.547217-14.510482-6.043646-22.352077 36.033681-62.741973 109.302405-105.303324 182.322465-105.908098 61.035098-0.50449 118.43132 26.850531 161.690566 77.027327 42.594097 49.40727 66.367547 115.201765 66.940598 185.263447 0.074701 9.041934-7.195889 16.432251-16.237823 16.505929C946.370968 439.310468 946.323896 439.310468 946.278871 439.310468zM321.371358 964.204126c-1.332345 0-2.685155-0.289596-3.967358-0.903579-4.588505-2.194992-6.528694-7.694239-4.334725-12.281721 32.91976-68.833715 23.378453-113.539916 14.960737-152.983253-6.184863-28.981055-12.026918-56.354496-1.410116-88.493473 1.595334-4.830005 6.803963-7.450692 11.633968-5.856381 4.830005 1.596358 7.451716 6.803963 5.856381 11.633968-9.051143 27.396977-3.960195 51.250244 1.934049 78.869279 9.031701 42.318828 19.268856 90.285283-16.35755 164.774811C328.104713 962.273147 324.806597 964.204126 321.371358 964.204126zM728.914308 905.665895c-0.744967 0-1.502213-0.116657-2.24718-0.363274-3.756557-1.240247-5.796006-5.291516-4.554736-9.048073 14.236236-43.109844 9.441023-70.667479 4.802376-97.317443-3.879354-22.294772-7.890714-45.347814-0.127913-75.556836 0.984421-3.831258 4.886287-6.14086 8.719592-5.154393 3.831258 0.984421 6.139837 4.888334 5.154393 8.719592-6.995321 27.224038-3.418866 47.77612 0.367367 69.534679 4.710278 27.066449 10.047844 57.745169-5.314029 104.266715C734.721571 903.758452 731.921805 905.665895 728.914308 905.665895zM155.425885 313.322032c-0.013303 0-0.026606 0-0.039909 0-4.520967-0.021489-8.169053-3.704368-8.147564-8.225335 0.12689-26.460652 11.968589-58.550511 31.677467-85.842087 22.309098-30.891568 52.228525-52.552913 84.245729-60.995189 4.371564-1.153266 8.849552 1.457188 10.002818 5.828752 1.152243 4.371564-1.457188 8.850575-5.828752 10.002818-63.956637 16.863063-103.517655 87.712691-103.724363 131.083477C163.589822 309.683155 159.928433 313.322032 155.425885 313.322032zM783.140327 617.364723c37.152155-10.30367 67.941392-36.516682 81.678254-73.033363M301.165154 716.52514c-3.588735 0-6.855128-2.085498-8.361435-5.350868-1.52268-3.298116-0.963954-7.18361 1.426489-9.918907l34.927487-39.977503c1.723248-1.972934 4.204765-3.119037 6.824429-3.149736 0.036839-0.001023 0.074701-0.001023 0.11154-0.001023 2.578732 0 5.04183 1.081635 6.786567 2.983961l35.880185 39.118949c2.454912 2.675946 3.107781 6.54609 1.665942 9.880021-1.441838 3.334955-4.709255 5.509481-8.340969 5.553483l-70.806649 0.861624C301.239855 716.52514 301.203016 716.52514 301.165154 716.52514zM336.260463 681.143305l-14.600533 16.712637 29.599132-0.361227L336.260463 681.143305zM755.821121 723.288171c-0.01842 0-0.036839 0-0.055259 0l-44.194548-0.341784c-2.846838-0.021489-5.411243-1.727341-6.53074-4.345981-1.12052-2.617617-0.583285-5.649674 1.367137-7.723915l22.278399-23.693632c1.366114-1.453095 3.255137-2.307555 5.273097-2.25639 1.995447 0.016373 3.89368 0.862647 5.238304 2.336208l21.915126 24.036439c1.917676 2.103918 2.408863 5.143137 1.248434 7.743358C761.210875 721.626321 758.64647 723.288171 755.821121 723.288171zM728.075197 708.74699l11.405771 0.088004-5.655813-6.203282L728.075197 708.74699z" /></svg>