<?xml version="1.0" standalone="no"?><!DOCTYPE svg PUBLIC "-//W3C//DTD SVG 1.1//EN" "http://www.w3.org/Graphics/SVG/1.1/DTD/svg11.dtd"><svg class="icon" width="81px" height="81.00px" viewBox="0 0 1024 1024" version="1.1" xmlns="http://www.w3.org/2000/svg"><path fill="#353535" d="M130.715237 140.898787c-7.541698-28.902315-36.218214-45.859846-64.059272-38.137508-27.841058 7.699757-44.32441 37.189151-36.805292 66.159206l202.745226 783.049526c7.519118 28.834576 36.285954 45.950165 64.036692 38.227828 27.976538-7.677178 44.34699-37.39237 36.918192-66.294686L130.715237 140.898787 130.715237 140.898787zM535.144432 81.671621C318.015788-58.911047 191.568159 140.740728 177.997619 164.765777c10.31903 37.55043 130.037839 481.539669 130.037839 481.539669 43.263153-133.695788 149.501742-193.713252 293.945579-154.785447 156.117663 42.066417 282.204013-56.698214 322.396295-128.841103 40.282602-72.120309 63.720573-208.20957 63.720573-208.20957C894.2557 322.576935 752.679515 222.163969 535.144432 81.671621L535.144432 81.671621z" /></svg>