<?xml version="1.0" standalone="no"?><!DOCTYPE svg PUBLIC "-//W3C//DTD SVG 1.1//EN" "http://www.w3.org/Graphics/SVG/1.1/DTD/svg11.dtd"><svg t="1491726892996" class="icon" style="" viewBox="0 0 1024 1024" version="1.1" xmlns="http://www.w3.org/2000/svg" p-id="5659" xmlns:xlink="http://www.w3.org/1999/xlink" width="81" height="81"><defs><style type="text/css"></style></defs><path d="M513 63.9C761.1 63.9 962.3 265 962.3 513c0 248.2-201.1 449.3-449.3 449.3-248 0-449.1-201.2-449.1-449.3C63.9 265 265 63.9 513 63.9z m201.3 232.5H590.4c-8.6 0-15.5 6.8-15.5 15.4 0 8.6 6.9 15.6 15.5 15.6h87.3L576 429.1c-29.5-24.9-67.8-39.8-109.3-39.8-94.1 0-170.3 76.2-170.3 170.1 0 94.1 76.2 170.3 170.3 170.3 93.9 0 170.1-76.2 170.1-170.3 0-41.1-14.5-79-38.9-108.3L698.6 350v85.6c0 8.6 7 15.5 15.6 15.5 8.3 0 15.4-6.9 15.4-15.5V311.8c0.1-8.5-7-15.4-15.3-15.4zM466.7 698.7c76.6 0 139.1-62.5 139.1-139.3 0-76.6-62.5-139.1-139.1-139.1-76.8 0-139.3 62.5-139.3 139.1 0.1 76.8 62.5 139.3 139.3 139.3z" fill="#A0D9F6" p-id="5660"></path></svg>