<?xml version="1.0" standalone="no"?><!DOCTYPE svg PUBLIC "-//W3C//DTD SVG 1.1//EN" "http://www.w3.org/Graphics/SVG/1.1/DTD/svg11.dtd"><svg t="1491723765724" class="icon" style="" viewBox="0 0 1024 1024" version="1.1" xmlns="http://www.w3.org/2000/svg" p-id="2513" xmlns:xlink="http://www.w3.org/1999/xlink" width="81" height="81"><defs><style type="text/css"></style></defs><path d="M1003.52 869.87776l0 20.48-40.96 0 0-61.44 0 0 0-20.478976 0.180224 0c-0.039936-130.419712-56.71936-244.718592-141.999104-310.199296-0.480256 0.459776-1.000448 0.86016-1.519616 1.28l0-59.71968-0.360448 0c25.780224-34.239488 41.220096-76.679168 41.220096-122.83904 0-106.24-80.780288-193.579008-184.200192-203.859968L675.88096 72.20224c125.939712 10.43968 224.979968 115.919872 224.979968 244.758528 0 57.039872-19.579904 109.41952-52.160512 151.139328C942.000128 541.519872 1003.480064 666.499072 1003.52 808.438784l0 0L1003.52 869.87776 1003.52 869.87776zM705.360896 529.540096c93.299712 73.419776 154.779648 198.398976 154.819584 340.337664l0 0 0 81.92-40.96 0 0 0 0 0 0-61.44 0 0 0-20.48 0.180224 0c-0.039936-130.418688-56.73984-244.718592-142.000128-310.198272-43.638784 39.940096-101.538816 64.519168-165.339136 64.519168-63.799296 0-121.699328-24.579072-165.358592-64.519168-85.259264 65.478656-141.939712 179.77856-141.979648 310.198272l0.180224 0 0 61.44 0 0 0 20.48-40.96 0 0-61.44c-0.279552-6.700032 0-13.559808 0-20.339712 0-0.02048 0-0.02048 0-0.02048l0-0.119808 0 0c0.039936-141.938688 61.519872-266.917888 154.81856-340.337664-32.579584-41.719808-52.139008-94.099456-52.139008-151.139328 0-135.759872 109.879296-245.798912 245.438464-245.798912 135.560192 0 245.439488 110.03904 245.439488 245.798912C757.500928 435.44064 737.941504 487.820288 705.360896 529.540096zM512.062464 173.50144c-113.03936 0-204.698624 91.739136-204.698624 204.899328s91.660288 204.899328 204.698624 204.899328c113.019904 0 204.679168-91.74016 204.679168-204.899328S625.082368 173.50144 512.062464 173.50144zM164.02432 316.960768c0 46.159872 15.459328 88.599552 41.219072 122.83904l-0.339968 0 0 59.71968c-0.520192-0.41984-1.040384-0.820224-1.540096-1.28C118.104064 563.720192 61.423616 678.019072 61.38368 808.438784l0.180224 0 0 61.438976 0 0 0 20.48-40.96 0 0-61.44 0 0c-0.279552-6.699008 0-13.558784 0-20.338688 0-0.02048 0-0.039936 0-0.039936l0-0.100352 0 0c0.039936-141.939712 61.519872-266.918912 154.81856-340.338688-32.579584-41.719808-52.159488-94.099456-52.159488-151.139328 0-128.83968 99.039232-234.318848 224.978944-244.758528l0 40.899584C244.82304 123.38176 164.02432 210.721792 164.02432 316.960768z" p-id="2514"></path></svg>