<?xml version="1.0" standalone="no"?><!DOCTYPE svg PUBLIC "-//W3C//DTD SVG 1.1//EN" "http://www.w3.org/Graphics/SVG/1.1/DTD/svg11.dtd"><svg class="icon" width="81px" height="81.00px" viewBox="0 0 1024 1024" version="1.1" xmlns="http://www.w3.org/2000/svg"><path fill="#353535" d="M292.028 553.722c-8.38 6.279-10.073 18.167-3.787 26.546 6.286 8.361 18.167 10.102 26.546 3.787l45.509-34.13 0 265.482c0 10.471 8.492 18.963 18.963 18.963 10.471 0 18.963-8.492 18.963-18.963L398.222 512l-30.343-15.167L292.028 553.722zM622.435 627.065l-34.583-0.834 0-76.305L701.63 549.926c10.471 0 18.963-8.492 18.963-18.963 0-10.471-8.492-18.963-18.963-18.963L549.926 512l0 151.25 72.055 1.731c35.546 0 64.463 28.917 64.463 64.463s-28.917 64.463-64.463 64.463c-25.111 0-48.111-14.759-58.601-37.592-4.39-9.536-15.677-13.714-25.139-9.324-9.519 4.371-13.695 15.62-9.324 25.139 16.648 36.269 53.176 59.703 93.065 59.703 56.455 0 102.389-45.936 102.389-102.389C724.37 672.99 678.436 627.056 622.435 627.065zM910.222 94.815 796.444 94.815 796.444 56.889C796.444 25.518 770.926 0 739.556 0l-18.963 0c-31.37 0-56.889 25.518-56.889 56.889l0 37.926L360.296 94.815 360.296 56.889C360.296 25.518 334.778 0 303.407 0l-18.963 0c-31.371 0-56.889 25.518-56.889 56.889l0 37.926L113.778 94.815C48.917 94.815 0 140.472 0 201.009l0 709.213C0 972.963 51.037 1024 113.778 1024l796.444 0C972.963 1024 1024 972.963 1024 910.222L1024 201.009C1024 140.472 975.083 94.815 910.222 94.815zM113.778 170.667l113.778 0c0 31.37 25.518 56.889 56.889 56.889l56.889 0c10.471 0 18.963-8.492 18.963-18.963s-8.492-18.963-18.963-18.963l-56.889 0c-10.454 0-18.963-8.509-18.963-18.963L265.482 56.889c0-10.454 8.509-18.963 18.963-18.963l18.963 0c10.454 0 18.963 8.509 18.963 18.963l0 43.188c-11.289 6.569-18.963 18.663-18.963 32.664 0 20.945 16.981 37.926 37.926 37.926l322.37 0c0 31.37 25.518 56.889 56.889 56.889l56.889 0c10.471 0 18.963-8.492 18.963-18.963s-8.492-18.963-18.963-18.963l-56.889 0c-10.454 0-18.963-8.509-18.963-18.963L701.63 56.889c0-10.454 8.509-18.963 18.963-18.963l18.963 0c10.454 0 18.963 8.509 18.963 18.963l0 43.188c-11.289 6.569-18.963 18.663-18.963 32.664 0 20.945 16.981 37.926 37.926 37.926l132.741 0c17.501 0 37.926 7.944 37.926 30.343l0 140.324L75.852 341.334 75.852 201.009C75.852 178.61 96.277 170.667 113.778 170.667zM910.222 948.148 113.778 948.148c-20.916 0-37.926-17.01-37.926-37.926L75.852 379.259l872.296 0 0 530.963C948.148 931.138 931.138 948.148 910.222 948.148z" /></svg>